<mxfile host="65bd71144e" modified="2020-12-26T04:44:33.330Z" agent="5.0 (Macintosh; Intel Mac OS X 11_0_0) AppleWebKit/537.36 (KHTML, like Gecko) Code/1.52.1 Chrome/83.0.4103.122 Electron/9.3.5 Safari/537.36" version="13.10.0" etag="BVISfLPMPJKlNgarpd3f" type="embed">
    <diagram id="01-3GWSrB6r5fN2QBBPN" name="Page-1">
        <mxGraphModel dx="968" dy="680" grid="1" gridSize="10" guides="1" tooltips="1" connect="1" arrows="1" fold="1" page="1" pageScale="1" pageWidth="827" pageHeight="1169" math="0" shadow="0">
            <root>
                <mxCell id="0"/>
                <mxCell id="1" parent="0"/>
                <mxCell id="2" value="" style="whiteSpace=wrap;html=1;aspect=fixed;" vertex="1" parent="1">
                    <mxGeometry x="90" y="20" width="640" height="640" as="geometry"/>
                </mxCell>
                <mxCell id="4" value="&lt;font style=&quot;font-size: 36px&quot;&gt;ホルモン&lt;/font&gt;" style="rounded=0;whiteSpace=wrap;html=1;" vertex="1" parent="1">
                    <mxGeometry x="90" y="50" width="640" height="160" as="geometry"/>
                </mxCell>
                <mxCell id="5" value="" style="whiteSpace=wrap;html=1;aspect=fixed;" vertex="1" parent="1">
                    <mxGeometry x="285" y="210" width="250" height="250" as="geometry"/>
                </mxCell>
                <mxCell id="6" value="ファイルを開く" style="rounded=0;whiteSpace=wrap;html=1;" vertex="1" parent="1">
                    <mxGeometry x="360" y="220" width="100" height="40" as="geometry"/>
                </mxCell>
                <mxCell id="7" value="予想点数" style="text;html=1;strokeColor=none;fillColor=none;align=center;verticalAlign=middle;whiteSpace=wrap;rounded=0;" vertex="1" parent="1">
                    <mxGeometry x="340" y="270" width="60" height="20" as="geometry"/>
                </mxCell>
                <mxCell id="8" value="0" style="rounded=0;whiteSpace=wrap;html=1;" vertex="1" parent="1">
                    <mxGeometry x="414" y="270" width="30" height="20" as="geometry"/>
                </mxCell>
                <mxCell id="9" value="点数評価" style="rounded=0;whiteSpace=wrap;html=1;" vertex="1" parent="1">
                    <mxGeometry x="380" y="310" width="60" height="30" as="geometry"/>
                </mxCell>
                <mxCell id="10" value="お肉の点数は&lt;br&gt;&lt;br&gt;です！" style="text;html=1;strokeColor=none;fillColor=none;align=center;verticalAlign=middle;whiteSpace=wrap;rounded=0;" vertex="1" parent="1">
                    <mxGeometry x="350" y="358" width="120" height="30" as="geometry"/>
                </mxCell>
            </root>
        </mxGraphModel>
    </diagram>
</mxfile>